<svg width="295" height="98" viewBox="0 0 295 98" fill="none" xmlns="http://www.w3.org/2000/svg">
<path d="M23.2758 47.2654L20.6663 44.6676L20.6663 85.8166L23.2758 85.3697V47.2654Z" fill="#FFC600"/>
<path d="M39.361 80.1574L38.2342 91.1323L30.8145 92.4033L31.6389 86.6294L29.3319 84.332V92.6573L13.3061 95.4022L15.9155 98L40.8436 93.7308L41.9704 82.7552L45.9125 82.0802L46.7219 89.6788L45.5937 79.0901L39.361 80.1574Z" fill="#FFC600"/>
<path d="M64.6161 55.8714C65.4665 56.795 66.3867 57.7179 67.376 58.6395C67.4252 58.6865 67.4731 58.7376 67.5224 58.7846C67.521 58.7832 67.5197 58.7819 67.5183 58.7805C67.4211 58.677 67.3213 58.5734 67.2255 58.4692C66.3737 57.5463 65.6622 56.5662 65.0882 55.5254C64.5155 54.4874 64.2282 53.2403 64.2282 51.7834C64.2282 50.1916 64.4361 49.018 64.8514 48.2647C65.2667 47.5114 65.8701 47.0673 66.6617 46.9317C66.6665 46.9304 66.6713 46.9304 66.6768 46.9297C66.4681 46.1457 66.2369 45.5647 65.981 45.1969C65.4856 44.4865 64.8432 44.1977 64.0523 44.3333C63.2608 44.4688 62.658 44.9136 62.242 45.6669C61.8268 46.4202 61.6188 47.5938 61.6188 49.1856C61.6188 50.6418 61.9054 51.8889 62.4794 52.9276C63.0528 53.9677 63.765 54.9492 64.6161 55.8714Z" fill="#FFC600"/>
<path d="M61.3807 78.8762C61.6571 79.3067 61.9745 79.5826 62.331 79.7031C62.643 79.8094 62.9549 79.8414 63.2676 79.8073C63.2512 79.7576 63.2348 79.7133 63.2197 79.6616C62.9816 78.8831 62.6847 76.6142 62.6847 76.6142L60.0753 74.0158C60.1937 75.2704 60.3716 76.2846 60.6096 77.0638C60.8471 77.8416 61.1036 78.4465 61.3807 78.8762Z" fill="#FFC600"/>
<path d="M55.0597 81.9045C54.4857 80.4564 54.1197 78.7448 53.9623 76.7695L54.7997 76.3922L49.7465 42.7312L47.1371 40.1335L54.3776 88.367L46.7212 89.6788L49.3312 92.2773L56.987 90.9654L55.8862 83.6325C55.5858 83.1073 55.3087 82.5332 55.0597 81.9045Z" fill="#FFC600"/>
<path d="M55.8868 83.6318H55.8862V83.6324H55.8868V83.6318Z" fill="#FFC600"/>
<path d="M70.4889 39.7691H70.4883V39.7697H70.4889V39.7691Z" fill="#FFC600"/>
<path d="M67.1975 49.6623L69.8069 52.2601L75.4464 49.3837C74.8908 45.8862 73.8735 43.2046 72.3896 41.3438C71.845 40.6613 71.2107 40.1375 70.4883 39.7697C71.5898 41.5461 72.3752 43.8796 72.8363 46.7859L67.1975 49.6623Z" fill="#FFC600"/>
<path d="M43.9524 63.8984L42.5669 50.4694L42.4479 50.4899L40.1334 73.133L43.0595 72.631L43.9524 63.8984Z" fill="#FFC600"/>
<path d="M72.746 64.4501C71.8949 63.2316 70.974 62.1609 69.9861 61.238C69.488 60.7748 69.0077 60.3103 68.5452 59.8464C68.5452 59.8458 68.5446 59.8458 68.5446 59.8451C69.0987 60.4642 69.631 61.129 70.1366 61.8523C70.9863 63.0722 71.6992 64.508 72.2732 66.1611C72.8459 67.8149 73.1332 69.8003 73.1332 72.1209C73.1332 76.5339 72.2814 80.0702 70.5813 82.7259C68.8798 85.383 66.5454 86.9666 63.5782 87.4747C62.3509 87.6845 61.1926 87.6205 60.1054 87.284C59.6409 87.1403 59.1996 86.9421 58.7782 86.6962C59.0956 87.1907 59.4377 87.6354 59.8071 88.0257C60.6569 88.9275 61.6263 89.546 62.7155 89.8825C63.8026 90.2183 64.9602 90.283 66.1869 90.0725C69.1548 89.5637 71.4892 87.9815 73.1907 85.3237C74.8915 82.6674 75.7433 79.1323 75.7433 74.7187C75.7433 72.3988 75.4553 70.4133 74.8826 68.7589C74.3079 67.1058 73.5957 65.67 72.746 64.4501Z" fill="#FFC600"/>
<path d="M90.463 42.266L90.3439 42.2865L88.0287 64.9289L90.9563 64.4276L91.8484 55.6963L90.463 42.266Z" fill="#FFC600"/>
<path d="M113.609 39.8453L116.279 39.3876C116.3 39.3842 116.317 39.3835 116.337 39.3801C116.221 38.7017 116.066 38.1514 115.866 37.7448C115.628 37.2625 115.332 36.9608 114.975 36.8389C114.62 36.719 114.184 36.702 113.67 36.7898L110.999 37.2475V70.7532L113.609 70.3064V39.8453Z" fill="#FFC600"/>
<path d="M87.2577 71.9533L86.1309 82.9282L78.7112 84.1992L81.3205 86.7976L88.7396 85.5267L89.8671 74.5511L93.8085 73.8761L93.4897 70.8867L87.2577 71.9533Z" fill="#FFC600"/>
<path d="M159.609 29.1599C159.292 29.0551 158.897 29.0435 158.423 29.1245L156.523 29.4494V43.4389L158.481 43.1032C158.718 43.063 158.935 43.003 159.133 42.924V32.0472L160.855 31.7523C160.755 30.9676 160.606 30.3757 160.411 29.9773C160.193 29.538 159.926 29.2655 159.609 29.1599Z" fill="#FFC600"/>
<path d="M205.605 54.5487V24.0876L208.276 23.6299C208.296 23.6265 208.314 23.6258 208.333 23.6224C208.218 22.944 208.063 22.393 207.862 21.9864C207.625 21.5048 207.328 21.2024 206.972 21.0812C206.616 20.9606 206.18 20.9443 205.667 21.0321L202.996 21.4892V54.9955L205.667 54.5378L205.605 54.5487Z" fill="#FFC600"/>
<path d="M136.224 67.1828L136.247 67.1773C136.114 66.2755 136.045 65.1033 136.045 63.6396V41.7341C136.045 40.4154 136.094 39.327 136.193 38.4668C136.291 37.6092 136.46 36.9199 136.697 36.4023C136.935 35.884 137.232 35.5039 137.587 35.2594C137.942 35.0183 138.356 34.8561 138.83 34.7744C138.726 34.0299 138.581 33.466 138.391 33.1009C137.976 32.3088 137.253 31.9995 136.224 32.1753C135.75 32.257 135.334 32.4198 134.978 32.6616C134.621 32.9054 134.325 33.2855 134.087 33.8038C133.85 34.3221 133.681 35.0114 133.584 35.869C133.484 36.7285 133.435 37.817 133.435 39.1363V61.0411C133.435 63.6798 133.651 65.4064 134.087 66.2183C134.522 67.0309 135.234 67.3524 136.224 67.1828Z" fill="#FFC600"/>
<path d="M156.523 50.6725V70.8711L148.985 72.1625L151.595 74.7603L159.132 73.4695V55.4165L158.126 50.398L156.523 50.6725Z" fill="#FFC600"/>
<path d="M148.985 36.6291C148.703 33.3107 147.902 30.8035 146.579 29.1136C146.015 28.3951 145.349 27.8338 144.583 27.4224C145.855 29.587 146.492 32.7447 146.492 36.8995V58.805C146.492 63.5817 145.651 67.3319 143.97 70.053C142.287 72.7754 139.705 74.4347 136.224 75.0313C133.891 75.4311 131.958 75.2118 130.425 74.3822C130.621 74.7139 130.832 75.0245 131.058 75.3099C132.758 77.4534 135.351 78.2251 138.834 77.6291C142.315 77.0324 144.897 75.3739 146.579 72.6515C147.913 70.493 148.709 67.6759 148.985 64.2233V36.6291Z" fill="#FFC600"/>
<path d="M179.254 56.1963L178.126 67.1705L170.707 68.4421L171.075 65.8668L167.264 49.3524C168.529 48.2721 169.479 46.6988 170.112 44.6336C170.744 42.5698 171.062 39.7622 171.062 36.2143C171.062 31.392 170.3 27.9407 168.777 25.8572C168.197 25.065 167.495 24.4657 166.673 24.0543C167.859 26.1766 168.452 29.3622 168.452 33.6158C168.452 37.1644 168.135 39.9713 167.503 42.0351C166.869 44.101 165.92 45.6744 164.654 46.7546L169.698 68.6138L162.043 69.9256L164.652 72.5241L180.736 69.769L181.863 58.7934L185.805 58.1184L186.614 65.7177L185.486 55.1283L179.254 56.1963Z" fill="#FFC600"/>
<path d="M183.845 39.9393L182.459 26.5083L182.341 26.5288L180.026 49.1719L182.952 48.6706L183.845 39.9393Z" fill="#FFC600"/>
<path d="M214.067 16.3113C215.391 18.478 216.053 21.6186 216.053 25.736V46.0722C216.053 50.8489 215.164 54.6297 213.382 57.4135C211.601 60.1993 209.029 61.8782 205.667 62.4544L195.458 64.2029V57.5293L189.639 18.7702L187.03 16.1717L194.27 64.4059L186.614 65.7177L189.224 68.3155L208.276 65.0529C211.639 64.4767 214.211 62.7971 215.991 60.0113C217.773 57.2269 218.663 53.4466 218.663 48.6699V28.3338C218.663 23.5577 217.773 20.0929 215.991 17.9419C215.429 17.2622 214.787 16.7193 214.067 16.3113Z" fill="#FFC600"/>
<path d="M233.86 16.408L228.221 17.3739V11.2635L226.38 9.43201V58.9058L218.902 60.1877L221.511 62.7848L228.99 61.5036V18.1401L230.83 19.9717L233.86 19.4526V16.408Z" fill="#FFC600"/>
<path d="M249.586 8.50226L246.976 5.90447V14.161L241.337 15.1268V56.3441L233.86 57.6253L236.468 60.2238L243.948 58.9426V17.7253L249.586 16.7595V8.50226Z" fill="#FFC600"/>
<path d="M257.205 27.3747L255.82 13.9431L255.701 13.9635L253.387 36.606L256.313 36.1047L257.205 27.3747Z" fill="#FFC600"/>
<path d="M252.615 43.631L251.487 54.6066L244.068 55.8768L246.677 58.4746L254.096 57.2043L255.224 46.2288L259.165 45.5538L259.975 53.1524L258.847 42.5637L252.615 43.631Z" fill="#FFC600"/>
<path d="M288.699 12.858C288.144 9.35911 287.127 6.67822 285.643 4.81672C285.098 4.13424 284.465 3.61114 283.742 3.24333C284.843 5.02037 285.629 7.35321 286.09 10.2602L280.451 13.1359L283.061 15.7337L288.699 12.858Z" fill="#FFC600"/>
<path d="M274.636 42.3491C274.911 42.7803 275.229 43.0562 275.585 43.176C275.897 43.2823 276.209 43.3143 276.521 43.2809C276.505 43.2305 276.489 43.1862 276.473 43.1352C276.236 42.3566 275.939 40.0871 275.939 40.0871L273.33 37.4887C273.449 38.7433 273.626 39.7582 273.863 40.5367C274.101 41.3145 274.358 41.92 274.636 42.3491Z" fill="#FFC600"/>
<path d="M277.87 19.3443C278.72 20.2679 279.64 21.1909 280.629 22.1131C280.68 22.1601 280.727 22.2119 280.777 22.2595L280.775 22.2575C280.678 22.1526 280.576 22.0477 280.479 21.9421C279.627 21.0192 278.916 20.0384 278.342 18.999C277.768 17.9603 277.482 16.7132 277.482 15.2563C277.482 13.6645 277.69 12.4909 278.105 11.7376C278.52 10.9843 279.124 10.5395 279.915 10.4046L279.931 10.4012C279.722 9.6159 279.491 9.03831 279.235 8.66983C278.739 7.95942 278.097 7.67063 277.306 7.80617C276.514 7.94171 275.911 8.38648 275.495 9.1398C275.08 9.89312 274.872 11.0667 274.872 12.6585C274.872 14.1147 275.158 15.3625 275.733 16.4005C276.306 17.4406 277.019 18.4214 277.87 19.3443Z" fill="#FFC600"/>
<path d="M268.313 45.3774C267.739 43.9293 267.373 42.2177 267.216 40.2424L268.053 39.8658L262.999 6.20483L260.39 3.60636L267.631 51.8405L259.975 53.1524L262.584 55.7502L270.241 54.4383L269.14 47.1061C268.839 46.5802 268.562 46.0061 268.313 45.3774Z" fill="#FFC600"/>
<path d="M288.136 32.2325C287.562 30.5794 286.849 29.1429 286 27.9237C285.148 26.7045 284.228 25.6338 283.239 24.7116C282.742 24.2477 282.262 23.7839 281.799 23.32C282.353 23.9385 282.885 24.6026 283.39 25.3252C284.24 26.5451 284.953 27.9816 285.527 29.6347C286.099 31.2884 286.387 33.2739 286.387 35.5945C286.387 40.0075 285.535 43.5425 283.835 46.1995C282.133 48.8566 279.798 50.4388 276.832 50.9476C275.604 51.1574 274.446 51.0934 273.359 50.7569C272.895 50.6139 272.453 50.4156 272.032 50.1698C272.35 50.6636 272.691 51.109 273.06 51.4986C273.91 52.4004 274.88 53.0196 275.969 53.3554C277.056 53.6918 278.213 53.7559 279.441 53.5454C282.408 53.0373 284.743 51.455 286.444 48.7973C288.145 46.1409 288.997 42.6052 288.997 38.1923C288.997 35.8717 288.709 33.8862 288.136 32.2325Z" fill="#FFC600"/>
<path d="M97.6429 34.5273L95.0334 31.9294L95.6173 35.8252C96.374 35.5661 97.0701 35.294 97.715 35.0142L97.6429 34.5273Z" fill="#FFC600"/>
<path d="M77.6987 36.4752C77.9217 36.6625 78.2282 36.8375 78.6052 36.9969C78.7584 35.3002 83.6283 32.1977 91.4879 30.8457C93.6752 30.4697 95.6278 30.3104 97.3053 30.3104C99.7156 30.3104 101.557 30.6393 102.707 31.1243C102.71 31.0984 102.717 31.0712 102.717 31.0466C102.717 30.8941 102.675 30.6557 102.313 30.3512C101.408 29.5931 99.2066 29.0115 96.0007 29.0115C94.3231 29.0115 92.3698 29.1702 90.1832 29.5468C82.197 30.9206 77.293 34.1028 77.293 35.7797C77.293 35.933 77.3354 36.1714 77.6987 36.4752Z" fill="#FFC600"/>
<path d="M85.041 39.8624C84.7072 39.8733 84.3713 39.8862 84.049 39.8862C80.945 39.8862 78.3951 39.3869 76.8694 38.4347C77.0439 38.7446 77.2957 39.0614 77.6576 39.3658C79.0115 40.5006 81.6045 41.1218 84.8536 41.1797L85.041 39.8624Z" fill="#FFC600"/>
<path d="M125.896 62.3325V40.4277C125.896 39.5436 125.936 38.7058 125.994 37.8919C125.548 36.168 124.883 34.7703 123.996 33.6982C123.433 33.0185 122.791 32.4763 122.07 32.0683C122.396 32.601 122.679 33.1929 122.924 33.8426C122.932 33.8624 122.94 33.8821 122.947 33.9019C123.063 34.2145 123.171 34.5401 123.268 34.8793C123.277 34.91 123.286 34.9413 123.294 34.9719C123.391 35.3173 123.481 35.6735 123.559 36.0467C123.56 36.0501 123.561 36.0536 123.561 36.057C123.639 36.4288 123.707 36.8157 123.767 37.2149C123.771 37.2441 123.776 37.2721 123.78 37.3014C123.836 37.6835 123.882 38.0792 123.92 38.4852C123.927 38.5519 123.934 38.62 123.94 38.6874C123.974 39.0879 124.001 39.4993 124.021 39.923C124.025 39.9897 124.026 40.0585 124.029 40.126C124.046 40.5707 124.057 41.0237 124.057 41.493V61.8292C124.057 66.6052 123.167 70.3867 121.386 73.1705C119.606 75.9556 117.032 77.6352 113.67 78.2108L103.461 79.9599V73.2863L98.2878 38.8223C100.294 38.0819 102.093 37.1931 103.461 36.2075V33.7977C101.893 35.4113 99.1081 36.8355 95.9281 37.8933L96.1737 39.5279L102.274 80.1635L94.6172 81.4747L97.2273 84.0732L116.279 80.8092C119.642 80.233 122.215 78.5534 123.996 75.769C125.283 73.7556 126.098 71.2129 126.455 68.1574C126.084 66.501 125.896 64.5618 125.896 62.3325Z" fill="#FFC600"/>
<path d="M20.6664 44.667V85.8168L29.3319 84.332V92.6573L13.3062 95.4022V45.9277L20.6664 44.667Z" fill="#D92500"/>
<path d="M40.1334 73.133L44.8227 72.3293L42.567 50.4702L42.448 50.4906L40.1334 73.133ZM38.2342 91.133L30.8145 92.4033L38.0563 41.6885L47.1372 40.1335L54.3777 88.367L46.7219 89.6788L45.5937 79.0901L39.361 80.1574L38.2342 91.133Z" fill="#D92500"/>
<path d="M63.3401 36.6754C66.1486 36.1939 68.2962 36.8845 69.7801 38.746C71.2641 40.6069 72.2814 43.2877 72.837 46.786L67.1981 49.6623C66.8813 47.3969 66.4756 45.9087 65.981 45.1969C65.4863 44.4865 64.8432 44.1977 64.0523 44.3333C63.2608 44.4688 62.658 44.9136 62.2427 45.6669C61.8268 46.4202 61.6188 47.5938 61.6188 49.1856C61.6188 50.6418 61.9054 51.8889 62.4795 52.9276C63.0528 53.9677 63.765 54.9492 64.6161 55.8714C65.4665 56.7957 66.3867 57.7179 67.376 58.6402C68.3646 59.5631 69.2848 60.6331 70.1366 61.8517C70.9863 63.0716 71.6992 64.508 72.2732 66.1611C72.8459 67.8149 73.1332 69.8003 73.1332 72.1209C73.1332 76.5339 72.2814 80.0696 70.5813 82.7259C68.8798 85.383 66.5454 86.9659 63.5782 87.4747C62.3508 87.6845 61.1925 87.6198 60.1054 87.284C59.0169 86.9475 58.0475 86.3291 57.1971 85.4279C56.3453 84.5275 55.6331 83.3533 55.0597 81.9045C54.4864 80.4565 54.1197 78.7448 53.9623 76.7696L60.076 74.0165C60.1937 75.2711 60.3722 76.2853 60.6103 77.0638C60.847 77.8423 61.1036 78.4471 61.3814 78.8763C61.6578 79.3067 61.9752 79.5833 62.331 79.7031C62.6874 79.8244 63.0425 79.8543 63.3996 79.793C64.2692 79.6446 64.9028 79.1943 65.2989 78.4444C65.6936 77.6945 65.892 76.5461 65.892 74.9986C65.892 73.225 65.6054 71.717 65.0321 70.4726C64.4574 69.2289 63.7349 68.1003 62.8653 67.0902C61.9944 66.078 61.055 65.1033 60.0466 64.1607C59.0368 63.2194 58.0967 62.152 57.2265 60.9587C56.3555 59.7661 55.6331 58.3997 55.0597 56.8597C54.4864 55.3204 54.1997 53.4146 54.1997 51.139C54.1997 49.364 54.4077 47.6571 54.823 46.0163C55.2383 44.3755 55.8322 42.9084 56.6032 41.617C57.3749 40.3242 58.3252 39.2412 59.452 38.3653C60.5802 37.4894 61.8753 36.9261 63.3401 36.6754Z" fill="#D92500"/>
<path d="M139.014 38.1814C139.014 35.5884 138.806 33.8951 138.391 33.1016C137.975 32.3088 137.253 32.0002 136.224 32.176C135.75 32.2577 135.334 32.4205 134.978 32.6623C134.621 32.9061 134.325 33.2862 134.087 33.8045C133.85 34.3228 133.681 35.0115 133.584 35.8697C133.484 36.7292 133.435 37.8177 133.435 39.1363V61.0418C133.435 63.6805 133.651 65.4064 134.087 66.219C134.522 67.0316 135.234 67.3531 136.224 67.1835C137.213 67.0145 137.925 66.4479 138.36 65.4861C138.796 64.5251 139.014 62.7255 139.014 60.0862V38.1814ZM136.224 24.1912C139.706 23.5952 142.288 24.371 143.97 26.5159C145.651 28.6621 146.492 32.1228 146.492 36.9002V58.805C146.492 63.5817 145.651 67.332 143.97 70.053C142.288 72.7761 139.706 74.4347 136.224 75.0313C132.742 75.6273 130.15 74.8549 128.449 72.7121C126.747 70.57 125.896 67.1099 125.896 62.3325V40.4277C125.896 35.651 126.747 31.9001 128.449 29.1743C130.15 26.4498 132.742 24.7878 136.224 24.1912Z" fill="#D92500"/>
<path d="M156.523 43.4389L158.481 43.1031C158.956 43.0221 159.352 42.8641 159.669 42.6277C159.985 42.392 160.242 41.995 160.441 41.4371C160.638 40.8813 160.786 40.1491 160.885 39.2453C160.984 38.3414 161.034 37.1624 161.034 35.7055C161.034 34.1594 160.984 32.9279 160.885 32.0118C160.786 31.097 160.627 30.4186 160.411 29.9773C160.192 29.538 159.926 29.2655 159.609 29.1599C159.292 29.055 158.897 29.0435 158.422 29.1245L156.523 29.4494V43.4389ZM158.126 50.3979L156.523 50.6724V70.871L148.985 72.1624V22.6886L159.075 20.9606C162.28 20.411 164.644 21.1779 166.168 23.2594C167.69 25.3429 168.453 28.7949 168.453 33.6165C168.453 37.1645 168.136 39.972 167.503 42.0358C166.87 44.101 165.92 45.6744 164.655 46.7546L169.699 68.6145L162.043 69.9263L158.126 50.3979Z" fill="#D92500"/>
<path d="M180.026 49.1712L184.715 48.3682L182.459 26.5077L182.341 26.5281L180.026 49.1712ZM178.127 67.1705L170.707 68.4415L177.949 17.7274L187.03 16.1717L194.27 64.4059L186.614 65.717L185.486 55.1283L179.254 56.1963L178.127 67.1705Z" fill="#D92500"/>
<path d="M208.575 27.3584C208.575 25.9934 208.515 24.8777 208.396 24.0107C208.278 23.1443 208.1 22.47 207.862 21.9871C207.625 21.5055 207.328 21.2031 206.972 21.0819C206.616 20.9613 206.18 20.9443 205.667 21.0321L202.996 21.4898V54.9962L205.667 54.5385C206.18 54.4506 206.616 54.2851 206.972 54.0419C207.328 53.7994 207.625 53.4078 207.862 52.8663C208.1 52.3248 208.278 51.6001 208.396 50.6935C208.515 49.7856 208.575 48.627 208.575 47.2164V27.3584ZM205.667 12.9799C209.029 12.4037 211.602 13.1918 213.382 15.3434C215.163 17.4951 216.054 20.9593 216.054 25.7366V46.0721C216.054 50.8488 215.163 54.6297 213.382 57.4135C211.602 60.1992 209.029 61.8789 205.667 62.4544L195.458 64.2029V14.7284L205.667 12.9799Z" fill="#D92500"/>
<path d="M226.38 9.43198V58.9058L218.902 60.1883V10.7132L226.38 9.43198Z" fill="#D92500"/>
<path d="M246.976 5.90379V14.161L241.338 15.1268V56.3441L233.86 57.6253V16.4073L228.221 17.3732V9.11595L246.976 5.90379Z" fill="#D92500"/>
<path d="M253.387 36.6059L258.076 35.8029L255.82 13.943L255.701 13.9635L253.387 36.6059ZM251.487 54.6066L244.068 55.8769L251.309 5.16205L260.39 3.60705L267.631 51.8405L259.975 53.1524L258.847 42.5637L252.615 43.631L251.487 54.6066Z" fill="#D92500"/>
<path d="M276.594 0.148312C279.402 -0.33324 281.549 0.358097 283.034 2.21892C284.518 4.07974 285.535 6.76062 286.09 10.2595L280.452 13.1352C280.134 10.8698 279.729 9.38157 279.235 8.6698C278.74 7.95939 278.097 7.6706 277.306 7.80614C276.514 7.94168 275.911 8.38645 275.496 9.13977C275.08 9.89309 274.872 11.0667 274.872 12.6584C274.872 14.1147 275.158 15.3625 275.733 16.4005C276.306 17.4406 277.019 18.4214 277.87 19.3443C278.72 20.2686 279.64 21.1908 280.629 22.1131C281.618 23.036 282.538 24.1067 283.39 25.3252C284.24 26.5444 284.953 27.9809 285.527 29.634C286.099 31.2877 286.387 33.2732 286.387 35.5938C286.387 40.0074 285.535 43.5424 283.835 46.1988C282.133 48.8559 279.799 50.4388 276.832 50.9469C275.604 51.1574 274.446 51.0933 273.359 50.7569C272.27 50.4211 271.301 49.8019 270.451 48.9008C269.599 48.0004 268.887 46.8261 268.313 45.3774C267.74 43.9293 267.373 42.2177 267.216 40.2424L273.33 37.4887C273.448 38.7433 273.626 39.7581 273.863 40.5367C274.101 41.3145 274.357 41.92 274.636 42.3491C274.911 42.7803 275.229 43.0561 275.585 43.176C275.941 43.2972 276.296 43.3272 276.653 43.2666C277.523 43.1174 278.156 42.6679 278.552 41.9173C278.947 41.1674 279.146 40.019 279.146 38.4715C279.146 36.6979 278.858 35.1892 278.286 33.9448C277.711 32.7024 276.988 31.5738 276.119 30.5623C275.248 29.5516 274.309 28.5762 273.3 27.6335C272.29 26.6922 271.35 25.6249 270.48 24.4309C269.609 23.2389 268.887 21.8726 268.313 20.3326C267.74 18.794 267.453 16.8868 267.453 14.6119C267.453 12.8376 267.661 11.13 268.077 9.48918C268.492 7.84837 269.085 6.38192 269.857 5.08983C270.629 3.79707 271.578 2.71409 272.706 1.83817C273.834 0.962247 275.129 0.398964 276.594 0.148312Z" fill="#D92500"/>
<path d="M290.99 50.9026H291.217C291.542 50.9026 291.744 50.8897 291.822 50.8652C291.901 50.84 291.962 50.7971 292.008 50.7344C292.053 50.6724 292.076 50.6016 292.076 50.5226C292.076 50.4456 292.054 50.3775 292.01 50.3176C291.965 50.2576 291.902 50.214 291.821 50.1881C291.739 50.1623 291.538 50.15 291.217 50.15H290.99V50.9026ZM290.427 52.4692V49.712H290.99C291.516 49.712 291.811 49.7141 291.875 49.7189C292.061 49.7345 292.206 49.7713 292.309 49.8292C292.413 49.8864 292.499 49.975 292.569 50.0935C292.638 50.212 292.672 50.3441 292.672 50.4892C292.672 50.6881 292.607 50.8577 292.476 50.9994C292.346 51.1403 292.162 51.2282 291.926 51.2616C292.01 51.2936 292.075 51.3283 292.12 51.3658C292.166 51.4026 292.229 51.4734 292.308 51.5769C292.328 51.6042 292.396 51.7159 292.513 51.9127L292.839 52.4692H292.144L291.913 52.0217C291.756 51.7207 291.627 51.5313 291.524 51.4537C291.422 51.3753 291.292 51.3365 291.136 51.3365H290.99V52.4692H290.427ZM291.609 48.9894C291.25 48.9894 290.906 49.0786 290.577 49.2571C290.248 49.4362 289.988 49.693 289.798 50.0274C289.609 50.3618 289.515 50.7126 289.515 51.079C289.515 51.4428 289.607 51.7901 289.792 52.1198C289.977 52.4495 290.235 52.7076 290.567 52.8935C290.899 53.0781 291.246 53.1714 291.609 53.1714C291.975 53.1714 292.323 53.0781 292.653 52.8935C292.984 52.7076 293.243 52.4495 293.428 52.1198C293.615 51.7901 293.708 51.4428 293.708 51.079C293.708 50.7126 293.613 50.3618 293.424 50.0274C293.234 49.693 292.974 49.4362 292.643 49.2571C292.313 49.0786 291.969 48.9894 291.609 48.9894ZM291.605 48.4806C292.053 48.4806 292.483 48.5923 292.894 48.815C293.305 49.0377 293.628 49.3565 293.863 49.7733C294.098 50.1888 294.215 50.6241 294.215 51.079C294.215 51.5313 294.1 51.9625 293.87 52.3725C293.639 52.7832 293.318 53.1027 292.906 53.3322C292.493 53.5617 292.06 53.6768 291.605 53.6768C291.152 53.6768 290.719 53.5617 290.306 53.3322C289.894 53.1027 289.573 52.7832 289.342 52.3725C289.112 51.9625 288.997 51.5313 288.997 51.079C288.997 50.6241 289.114 50.1888 289.349 49.7733C289.584 49.3565 289.907 49.0377 290.318 48.815C290.729 48.5923 291.159 48.4806 291.605 48.4806Z" fill="#D92500"/>
<path d="M116.579 62.9735C116.579 64.3841 116.519 65.5427 116.4 66.4506C116.281 67.3578 116.103 68.0826 115.866 68.6234C115.629 69.1655 115.332 69.5572 114.975 69.799C114.62 70.0428 114.184 70.2077 113.67 70.2955L110.999 70.7532V37.2469L113.67 36.7899C114.184 36.702 114.62 36.719 114.975 36.8389C115.332 36.9608 115.629 37.2626 115.866 37.7441C116.103 38.227 116.281 38.902 116.4 39.7691C116.519 40.6355 116.579 41.7505 116.579 43.1154V62.9735ZM95.6175 35.8254L95.0332 31.9294L85.9517 33.4851L85.3387 37.7829C81.4116 37.9655 78.7235 37.3348 77.6987 36.4759C77.3354 36.1714 77.293 35.933 77.293 35.7805C77.293 34.1035 82.197 30.9207 90.1832 29.5475C92.3698 29.1709 94.3231 29.0122 96.0006 29.0122C99.2066 29.0122 101.408 29.5932 102.312 30.3519C102.675 30.6557 102.717 30.8941 102.717 31.0467C102.717 32.2679 100.115 34.2868 95.6175 35.8254ZM88.0295 64.929L90.344 42.2865L90.463 42.2661L92.718 64.1259L88.0295 64.929ZM121.386 31.1012C119.606 28.9488 117.032 28.1614 113.67 28.737L104.694 30.275C104.553 29.7961 104.254 29.2608 103.658 28.7615C101.467 26.9259 96.0389 26.4294 89.8275 27.498C82.7389 28.7179 75.2049 32.035 75.2049 35.7805C75.2049 36.3846 75.404 37.2707 76.3529 38.0663C77.776 39.2589 80.5646 39.8862 84.049 39.8862C84.3713 39.8862 84.7072 39.8733 85.0411 39.8624L78.7105 84.1999L86.1302 82.9289L87.2577 71.954L93.4898 70.8867L94.6173 81.4754L102.274 80.1636L95.9281 37.894C99.1081 36.8355 101.893 35.412 103.461 33.7984V79.9599L113.67 78.2115C117.032 77.6353 119.606 75.9563 121.386 73.1712C123.167 70.3875 124.057 66.6059 124.057 61.8292V41.4937C124.057 36.717 123.167 33.2528 121.386 31.1012Z" fill="#D92500"/>
</svg>
