<svg width="47" height="28" viewBox="0 0 47 28" fill="none" xmlns="http://www.w3.org/2000/svg">
<g clip-path="url(#clip0_156_319)">
<path fill-rule="evenodd" clip-rule="evenodd" d="M44.351 17.3193C45.6577 18.3746 46.4918 19.9772 46.4923 21.7718C46.4923 24.9511 43.8773 27.5286 40.6519 27.5286C37.4265 27.5286 34.8115 24.9511 34.8115 21.7718C34.8115 21.6073 34.8224 21.446 34.8363 21.2851C34.5088 21.2428 34.1597 21.1273 33.7853 20.9323C32.3923 21.8919 30.785 22.5431 29.0873 22.5431H14.8288C14.3928 22.5431 14.1806 22.3644 14.0675 22.1169C13.8851 25.1348 11.3518 27.5286 8.24463 27.5286C5.01919 27.5286 2.40423 24.9511 2.40423 21.7718C2.40423 21.3681 2.44761 20.974 2.52767 20.5937H0C0 17.8788 3.20736 12.7313 7.19513 10.5881C6.74941 10.4588 6.66677 10.1513 6.66677 9.42531C6.66677 8.27629 10.3911 5.22785 11.4184 5.22785C12.4457 5.22785 12.581 6.47716 14.085 6.47716C15.589 6.47716 21.1087 6.54844 22.028 6.82691C23.0181 7.12676 22.9401 7.37622 22.9401 7.87614V9.42531C22.9401 9.75266 22.6586 9.97818 21.8627 10.1044V10.9994C18.1559 13.1732 18.5929 18.6439 22.3952 18.6439H29.5816C31.4569 18.6439 33.9412 16.6025 33.9412 12.1428C33.9412 9.772 31.6956 5.17033 30.5464 2.97156H28.4686C28.0626 2.97156 27.7336 2.64727 27.7336 2.24713V1.98902C27.7336 1.58887 28.0626 1.26458 28.4686 1.26458H32.0163C32.3339 1.26458 32.6025 1.46465 32.7048 1.74313H32.7373C35.815 5.65396 37.4755 9.27156 38.539 13.774C39.2626 13.553 40.0889 13.4237 41.0387 13.4237C45.1959 13.4237 46.4918 17.1716 46.4918 17.1716C46.4918 17.1716 45.7795 17.2602 44.351 17.3193ZM8.24514 24.9007C9.99757 24.9007 11.4184 23.5001 11.4184 21.7728C11.4184 21.3559 11.3342 20.9588 11.1839 20.5948H5.30635C5.15605 20.9588 5.07187 21.3559 5.07187 21.7728C5.07187 23.5001 6.49271 24.9007 8.24514 24.9007ZM40.6514 24.9007C42.4043 24.9007 43.8247 23.5001 43.8247 21.7728C43.8247 20.0455 42.4038 18.6449 40.6514 18.6449C38.899 18.6449 37.4781 20.0455 37.4781 21.7728C37.4781 23.5001 38.899 24.9007 40.6514 24.9007ZM3.30808 13.0989L1.63519 15.1225C1.63519 15.1225 1.59748 13.0989 2.05354 13.0989H3.30808ZM36.0304 3.37324C35.3605 3.37324 33.0456 2.94255 33.0456 1.74262C33.0456 0.805891 34.8146 0 36.316 0C37.0381 0 36.7003 3.37324 36.0304 3.37324Z" fill="#FFC600"/>
</g>
<defs>
<clipPath id="clip0_156_319">
<rect width="47" height="28" fill="white"/>
</clipPath>
</defs>
</svg>
