<svg width="20" height="20" viewBox="0 0 20 20" fill="none" xmlns="http://www.w3.org/2000/svg">
<g clip-path="url(#clip0_156_348)">
<path fill-rule="evenodd" clip-rule="evenodd" d="M3.31996 5.91278e-05H16.6798C18.4998 5.91278e-05 19.9998 1.50004 19.9998 3.32002V16.6799C19.9998 18.4998 18.4998 19.9998 16.6798 19.9998H3.31996C1.49998 19.9998 -1.90735e-06 18.4998 -1.90735e-06 16.6799V3.32002C-1.90735e-06 1.50004 1.49998 5.91278e-05 3.31996 5.91278e-05ZM16.8198 9.81994C16.8198 6.15998 13.8198 3.18002 10.1199 3.18002C6.41992 3.18002 3.41996 6.15998 3.41996 9.81994C3.41996 11.0799 3.77995 12.2599 4.37994 13.2599L3.17996 16.8199L6.87991 15.6399C7.8399 16.1599 8.95989 16.4599 10.1199 16.4599C13.8198 16.4599 16.8198 13.4999 16.8198 9.81994ZM10.1199 4.24001C13.2198 4.24001 15.7598 6.73998 15.7598 9.81994C15.7598 12.8999 13.2198 15.3999 10.1199 15.3999C8.97989 15.3999 7.9199 15.0599 7.01991 14.4799L4.85994 15.1799L5.55993 13.0999C4.89994 12.1799 4.49994 11.0399 4.49994 9.81994C4.49994 6.73998 7.01991 4.24001 10.1199 4.24001ZM13.4998 11.3599C13.4598 11.2799 13.3598 11.2399 13.1998 11.1599C13.0198 11.0799 12.2198 10.6799 12.0599 10.6399C11.9199 10.5799 11.7999 10.5599 11.6999 10.7199C11.5999 10.8799 11.2799 11.2399 11.1799 11.3599C11.0799 11.4599 10.9799 11.4799 10.8199 11.3999C10.6599 11.3199 10.1399 11.1399 9.49988 10.5799C9.01989 10.1599 8.67989 9.61994 8.59989 9.45994C8.4999 9.29995 8.57989 9.19995 8.65989 9.11995C8.73989 9.05995 8.81989 8.93995 8.89989 8.83995C8.99989 8.73995 9.01989 8.67995 9.07989 8.57996C9.11989 8.45996 9.09989 8.35996 9.05989 8.27996C9.01989 8.19996 8.69989 7.39997 8.55989 7.07997C8.4199 6.75998 8.2799 6.75998 8.1799 6.75998C8.0799 6.75998 7.9199 6.79998 7.9199 6.79998C7.9199 6.79998 7.57991 6.83998 7.43991 6.99998C7.27991 7.15997 6.85991 7.55997 6.85991 8.35996C6.85991 9.15995 7.43991 9.91994 7.51991 10.0399C7.61991 10.1399 8.65989 11.8399 10.3399 12.4999C11.9999 13.1399 11.9999 12.9199 12.2998 12.8999C12.5998 12.8799 13.2798 12.4999 13.3998 12.1199C13.5398 11.7399 13.5398 11.4199 13.4998 11.3599Z" fill="white"/>
</g>
<defs>
<clipPath id="clip0_156_348">
<rect width="20" height="20" fill="white"/>
</clipPath>
</defs>
</svg>
