<svg width="47" height="47" viewBox="0 0 47 47" fill="none" xmlns="http://www.w3.org/2000/svg">
<circle cx="23.5" cy="23.5" r="23.5" fill="#FD6250"/>
<g clip-path="url(#clip0_517_245)">
<path d="M41.5305 21.8059C39.6366 23.5637 37.9568 23.6739 35.9394 22.0995C35.0118 21.3764 34.181 20.5147 33.251 19.7955C32.5314 19.2391 31.7708 18.6865 30.9495 18.3429C29.5286 17.7467 28.087 17.9493 26.7893 18.7852C25.9076 19.3532 25.1046 20.0609 24.2871 20.7353C24.1722 20.8289 24.0863 20.8802 23.9992 20.8764C23.9121 20.8802 23.8263 20.8289 23.7114 20.7353C22.8939 20.0609 22.0908 19.3532 21.2092 18.7852C19.9128 17.9493 18.47 17.7467 17.049 18.3429C16.2277 18.6865 15.4671 19.2391 14.7475 19.7955C13.8174 20.5147 12.9866 21.3764 12.059 22.0995C10.0417 23.6739 8.36194 23.5637 6.46804 21.8059C6.31202 21.661 6.15601 21.5161 6 21.3725C6.2818 23.0264 6.8901 24.5099 7.78747 25.8561C8.93273 27.5742 10.4348 28.805 12.3202 29.4807C16.7272 31.0602 22.294 28.8588 23.9992 24.7035C25.7044 28.8588 31.2713 31.0602 35.6783 29.4807C37.5637 28.805 39.0657 27.5742 40.211 25.8561C41.1083 24.5099 41.7167 23.0264 41.9985 21.3725C41.8425 21.5161 41.6865 21.661 41.5305 21.8059Z" fill="white"/>
</g>
<defs>
<clipPath id="clip0_517_245">
<rect width="36" height="12" fill="white" transform="translate(6 18)"/>
</clipPath>
</defs>
</svg>
