<svg width="47" height="47" viewBox="0 0 47 47" fill="none" xmlns="http://www.w3.org/2000/svg">
<circle cx="23.5" cy="23.5" r="23.5" fill="#06C167"/>
<g clip-path="url(#clip0_517_251)">
<path d="M6.30134 25.9972C6.47037 26.4495 6.7044 26.8361 7.00346 27.1572C7.30252 27.4783 7.65682 27.7241 8.06635 27.8945C8.47593 28.0649 8.92124 28.1501 9.40233 28.1501C9.87042 28.1501 10.3092 28.0616 10.7188 27.8846C11.1284 27.7076 11.4859 27.4586 11.7914 27.1375C12.097 26.8164 12.3343 26.4331 12.5033 25.9874C12.6724 25.5418 12.7568 25.0438 12.7568 24.4932V16H14.8047V29.7622H12.7764V28.4842C12.3213 28.9692 11.7849 29.3427 11.1673 29.6049C10.5497 29.867 9.88341 29.9981 9.1683 29.9981C8.44016 29.9981 7.76082 29.8703 7.1302 29.6147C6.49963 29.3591 5.95351 28.9954 5.49198 28.5236C5.03044 28.0517 4.66635 27.4849 4.39983 26.823C4.13326 26.1611 4 25.4238 4 24.6112V16H6.04781V24.4932C6.04781 25.0438 6.1323 25.545 6.30134 25.9972ZM18.3345 16V21.0133C18.7896 20.5546 19.3162 20.1909 19.9143 19.9222C20.5123 19.6535 21.1625 19.5192 21.8645 19.5192C22.5927 19.5192 23.2752 19.6568 23.9123 19.932C24.5494 20.2072 25.102 20.5808 25.5701 21.0527C26.0382 21.5245 26.4087 22.0816 26.6818 22.7238C26.9548 23.366 27.0913 24.0476 27.0913 24.7685C27.0913 25.4893 26.9548 26.1676 26.6818 26.8033C26.4087 27.439 26.0382 27.9927 25.5701 28.4645C25.102 28.9364 24.5494 29.31 23.9123 29.5852C23.2752 29.8604 22.5926 29.998 21.8645 29.998C21.1624 29.998 20.5091 29.8637 19.9045 29.595C19.2999 29.3263 18.7701 28.9626 18.315 28.5039V29.7621H16.3647V16H18.3345ZM18.5588 26.125C18.7343 26.5445 18.9781 26.9115 19.2902 27.226C19.6022 27.5406 19.9663 27.7896 20.3823 27.9731C20.7984 28.1566 21.247 28.2484 21.728 28.2484C22.1961 28.2484 22.6382 28.1566 23.0542 27.9731C23.4703 27.7896 23.831 27.5406 24.1367 27.226C24.4422 26.9115 24.686 26.5445 24.868 26.125C25.05 25.7056 25.141 25.2534 25.141 24.7685C25.141 24.2835 25.05 23.828 24.868 23.4021C24.686 22.9761 24.4422 22.6058 24.1367 22.2913C23.8311 21.9768 23.4703 21.731 23.0542 21.554C22.6381 21.3771 22.1961 21.2886 21.728 21.2886C21.26 21.2886 20.8179 21.3771 20.4019 21.554C19.9858 21.731 19.6218 21.9768 19.3097 22.2913C18.9977 22.6058 18.7506 22.9761 18.5686 23.4021C18.3866 23.828 18.2955 24.2835 18.2955 24.7685C18.2955 25.2534 18.3833 25.7056 18.5588 26.125ZM28.2028 22.7435C28.4628 22.1144 28.8204 21.5606 29.2754 21.0822C29.7305 20.6038 30.2701 20.227 30.8942 19.9518C31.5183 19.6765 32.1944 19.5389 32.9225 19.5389C33.6376 19.5389 34.3007 19.67 34.9118 19.9321C35.5229 20.1942 36.0495 20.558 36.4916 21.0233C36.9336 21.4885 37.2782 22.039 37.5252 22.6747C37.7722 23.3104 37.8958 24.0018 37.8958 24.7489V25.3977H29.8021C29.8671 25.804 29.9971 26.1808 30.1921 26.5281C30.3872 26.8754 30.6309 27.1769 30.9235 27.4325C31.216 27.6881 31.5476 27.888 31.9181 28.0321C32.2887 28.1763 32.682 28.2484 33.0981 28.2484C34.2813 28.2484 35.2369 27.7569 35.965 26.7739L37.3887 27.8355C36.8947 28.5039 36.2836 29.0282 35.5555 29.4083C34.8273 29.7884 34.0082 29.9785 33.0981 29.9785C32.357 29.9785 31.6646 29.8473 31.021 29.5852C30.3774 29.3231 29.8184 28.9561 29.3438 28.4842C28.8692 28.0124 28.4954 27.4586 28.2224 26.823C27.9494 26.1873 27.8128 25.4959 27.8128 24.7488C27.8127 24.0411 27.9428 23.3726 28.2028 22.7435ZM30.943 21.9669C30.3904 22.4322 30.0231 23.0515 29.8411 23.8248H35.9065C35.7375 23.0515 35.3767 22.4322 34.8241 21.9669C34.2715 21.5016 33.6246 21.269 32.8835 21.269C32.1424 21.269 31.4956 21.5016 30.943 21.9669ZM41.5817 22.193C41.1656 22.6517 40.9576 23.2743 40.9576 24.0607V29.7622H38.9878V19.7355H40.938V20.9741C41.1851 20.5678 41.5069 20.2466 41.9035 20.0107C42.3 19.7747 42.7713 19.6568 43.3175 19.6568H44V21.5048H43.1809C42.5308 21.5049 41.9978 21.7342 41.5817 22.193Z" fill="white"/>
</g>
<defs>
<clipPath id="clip0_517_251">
<rect width="40" height="14" fill="white" transform="translate(4 16)"/>
</clipPath>
</defs>
</svg>
